<mxfile host="app.diagrams.net" modified="2024-04-06T04:32:19.026Z" agent="Mozilla/5.0 (Windows NT 10.0; Win64; x64) AppleWebKit/537.36 (KHTML, like Gecko) Chrome/123.0.0.0 Safari/537.36" etag="UUIVXfEFSc92SVaQrjy6" version="24.2.2" type="device">
  <diagram name="Page-1" id="2a216829-ef6e-dabb-86c1-c78162f3ba2b">
    <mxGraphModel dx="1434" dy="780" grid="1" gridSize="10" guides="1" tooltips="1" connect="1" arrows="1" fold="1" page="1" pageScale="1" pageWidth="850" pageHeight="1100" background="none" math="0" shadow="0">
      <root>
        <mxCell id="0" />
        <mxCell id="1" parent="0" />
        <mxCell id="TucjEpPuX23Nhl8czytz-80" value="" style="swimlane;html=1;startSize=20;fontStyle=0;collapsible=0;horizontal=0;swimlaneLine=0;fillColor=none;whiteSpace=wrap;" parent="1" vertex="1">
          <mxGeometry x="310" y="1080" width="1640" height="550" as="geometry" />
        </mxCell>
        <mxCell id="TucjEpPuX23Nhl8czytz-85" value="" style="swimlane;html=1;startSize=20;fontStyle=0;collapsible=0;horizontal=0;swimlaneLine=1;swimlaneFillColor=#ffffff;strokeWidth=2;whiteSpace=wrap;" parent="TucjEpPuX23Nhl8czytz-80" vertex="1">
          <mxGeometry y="-280" width="1640" height="405" as="geometry" />
        </mxCell>
        <mxCell id="7a84cebc1def654-1" value="" style="shape=mxgraph.bpmn.shape;html=1;verticalLabelPosition=bottom;labelBackgroundColor=#ffffff;verticalAlign=top;perimeter=ellipsePerimeter;outline=standard;symbol=general;" parent="TucjEpPuX23Nhl8czytz-85" vertex="1">
          <mxGeometry x="60" y="177.5" width="50" height="50" as="geometry" />
        </mxCell>
        <mxCell id="7a84cebc1def654-2" value="Открывает Сайт" style="shape=ext;rounded=1;html=1;whiteSpace=wrap;" parent="TucjEpPuX23Nhl8czytz-85" vertex="1">
          <mxGeometry x="140" y="162.5" width="120" height="80" as="geometry" />
        </mxCell>
        <mxCell id="7a84cebc1def654-36" style="edgeStyle=orthogonalEdgeStyle;rounded=0;html=1;jettySize=auto;orthogonalLoop=1;entryX=0;entryY=0.5;entryDx=0;entryDy=0;exitX=1;exitY=0.5;exitDx=0;exitDy=0;" parent="TucjEpPuX23Nhl8czytz-85" source="7a84cebc1def654-1" target="7a84cebc1def654-2" edge="1">
          <mxGeometry relative="1" as="geometry">
            <mxPoint x="175" y="193" as="targetPoint" />
            <Array as="points">
              <mxPoint x="140" y="203" />
            </Array>
          </mxGeometry>
        </mxCell>
        <mxCell id="TucjEpPuX23Nhl8czytz-19" value="Провести Поиск Статей По Параметрам" style="shape=ext;rounded=1;html=1;whiteSpace=wrap;" parent="TucjEpPuX23Nhl8czytz-85" vertex="1">
          <mxGeometry x="710" y="155" width="120" height="80" as="geometry" />
        </mxCell>
        <mxCell id="TucjEpPuX23Nhl8czytz-45" style="edgeStyle=orthogonalEdgeStyle;rounded=0;orthogonalLoop=1;jettySize=auto;html=1;entryX=0;entryY=0.5;entryDx=0;entryDy=0;" parent="TucjEpPuX23Nhl8czytz-85" source="0IdrTEg0beJuwS93n00U-23" target="TucjEpPuX23Nhl8czytz-19" edge="1">
          <mxGeometry relative="1" as="geometry" />
        </mxCell>
        <mxCell id="TucjEpPuX23Nhl8czytz-25" value="Найти Статьи По Тегам" style="shape=ext;rounded=1;html=1;whiteSpace=wrap;" parent="TucjEpPuX23Nhl8czytz-85" vertex="1">
          <mxGeometry x="415" y="155" width="120" height="80" as="geometry" />
        </mxCell>
        <mxCell id="TucjEpPuX23Nhl8czytz-27" value="Найти Статьи По Назваю" style="shape=ext;rounded=1;html=1;whiteSpace=wrap;" parent="TucjEpPuX23Nhl8czytz-85" vertex="1">
          <mxGeometry x="560" y="260" width="120" height="80" as="geometry" />
        </mxCell>
        <mxCell id="TucjEpPuX23Nhl8czytz-29" value="Читать Статью" style="shape=ext;rounded=1;html=1;whiteSpace=wrap;" parent="TucjEpPuX23Nhl8czytz-85" vertex="1">
          <mxGeometry x="1140" y="155" width="120" height="80" as="geometry" />
        </mxCell>
        <mxCell id="TucjEpPuX23Nhl8czytz-34" value="" style="points=[[0.145,0.145,0],[0.5,0,0],[0.855,0.145,0],[1,0.5,0],[0.855,0.855,0],[0.5,1,0],[0.145,0.855,0],[0,0.5,0]];shape=mxgraph.bpmn.event;html=1;verticalLabelPosition=bottom;labelBackgroundColor=#ffffff;verticalAlign=top;align=center;perimeter=ellipsePerimeter;outlineConnect=0;aspect=fixed;outline=end;symbol=terminate2;" parent="TucjEpPuX23Nhl8czytz-85" vertex="1">
          <mxGeometry x="1560" y="170" width="50" height="50" as="geometry" />
        </mxCell>
        <mxCell id="TucjEpPuX23Nhl8czytz-67" style="edgeStyle=orthogonalEdgeStyle;rounded=0;orthogonalLoop=1;jettySize=auto;html=1;entryX=0;entryY=0.5;entryDx=0;entryDy=0;" parent="TucjEpPuX23Nhl8czytz-85" source="TucjEpPuX23Nhl8czytz-65" target="TucjEpPuX23Nhl8czytz-29" edge="1">
          <mxGeometry relative="1" as="geometry" />
        </mxCell>
        <mxCell id="TucjEpPuX23Nhl8czytz-65" value="Открыть Интересующую Статью" style="shape=ext;rounded=1;html=1;whiteSpace=wrap;" parent="TucjEpPuX23Nhl8czytz-85" vertex="1">
          <mxGeometry x="970" y="155" width="120" height="80" as="geometry" />
        </mxCell>
        <mxCell id="0IdrTEg0beJuwS93n00U-27" style="edgeStyle=orthogonalEdgeStyle;rounded=0;orthogonalLoop=1;jettySize=auto;html=1;entryX=0.5;entryY=0;entryDx=0;entryDy=0;" parent="TucjEpPuX23Nhl8czytz-85" source="TucjEpPuX23Nhl8czytz-66" target="0IdrTEg0beJuwS93n00U-1" edge="1">
          <mxGeometry relative="1" as="geometry" />
        </mxCell>
        <mxCell id="TucjEpPuX23Nhl8czytz-66" value="Вернуться К Списку Статей" style="shape=ext;rounded=1;html=1;whiteSpace=wrap;" parent="TucjEpPuX23Nhl8czytz-85" vertex="1">
          <mxGeometry x="700" y="40" width="120" height="80" as="geometry" />
        </mxCell>
        <mxCell id="TucjEpPuX23Nhl8czytz-71" value="Посмотреть Другие Статьи По Теме" style="shape=ext;rounded=1;html=1;whiteSpace=wrap;" parent="TucjEpPuX23Nhl8czytz-85" vertex="1">
          <mxGeometry x="1320" y="155" width="120" height="80" as="geometry" />
        </mxCell>
        <mxCell id="TucjEpPuX23Nhl8czytz-73" style="edgeStyle=orthogonalEdgeStyle;rounded=0;orthogonalLoop=1;jettySize=auto;html=1;" parent="TucjEpPuX23Nhl8czytz-85" source="TucjEpPuX23Nhl8czytz-29" target="TucjEpPuX23Nhl8czytz-71" edge="1">
          <mxGeometry relative="1" as="geometry" />
        </mxCell>
        <mxCell id="TucjEpPuX23Nhl8czytz-75" style="edgeStyle=orthogonalEdgeStyle;rounded=0;orthogonalLoop=1;jettySize=auto;html=1;entryX=0;entryY=0.5;entryDx=0;entryDy=0;entryPerimeter=0;" parent="TucjEpPuX23Nhl8czytz-85" target="TucjEpPuX23Nhl8czytz-34" edge="1">
          <mxGeometry relative="1" as="geometry">
            <mxPoint x="1529.9999999999995" y="195" as="sourcePoint" />
          </mxGeometry>
        </mxCell>
        <mxCell id="TucjEpPuX23Nhl8czytz-74" style="edgeStyle=orthogonalEdgeStyle;rounded=0;orthogonalLoop=1;jettySize=auto;html=1;" parent="TucjEpPuX23Nhl8czytz-85" source="TucjEpPuX23Nhl8czytz-71" target="0IdrTEg0beJuwS93n00U-32" edge="1">
          <mxGeometry relative="1" as="geometry">
            <mxPoint x="1480" y="195" as="targetPoint" />
          </mxGeometry>
        </mxCell>
        <mxCell id="TucjEpPuX23Nhl8czytz-86" value="&lt;font style=&quot;font-size: 18px;&quot;&gt;Пользователь&lt;/font&gt;" style="text;html=1;align=center;verticalAlign=middle;resizable=0;points=[];autosize=1;strokeColor=none;fillColor=none;rotation=-90;" parent="TucjEpPuX23Nhl8czytz-85" vertex="1">
          <mxGeometry x="-60" y="178" width="140" height="40" as="geometry" />
        </mxCell>
        <mxCell id="0IdrTEg0beJuwS93n00U-17" style="edgeStyle=orthogonalEdgeStyle;rounded=0;orthogonalLoop=1;jettySize=auto;html=1;" parent="TucjEpPuX23Nhl8czytz-85" source="0IdrTEg0beJuwS93n00U-1" target="0IdrTEg0beJuwS93n00U-20" edge="1">
          <mxGeometry relative="1" as="geometry">
            <mxPoint x="450" y="300" as="targetPoint" />
          </mxGeometry>
        </mxCell>
        <mxCell id="0IdrTEg0beJuwS93n00U-1" value="Просмотр Статей" style="shape=ext;rounded=1;html=1;whiteSpace=wrap;" parent="TucjEpPuX23Nhl8czytz-85" vertex="1">
          <mxGeometry x="295" y="260" width="120" height="80" as="geometry" />
        </mxCell>
        <mxCell id="0IdrTEg0beJuwS93n00U-21" style="edgeStyle=orthogonalEdgeStyle;rounded=0;orthogonalLoop=1;jettySize=auto;html=1;entryX=0;entryY=0.5;entryDx=0;entryDy=0;" parent="TucjEpPuX23Nhl8czytz-85" source="0IdrTEg0beJuwS93n00U-20" target="TucjEpPuX23Nhl8czytz-27" edge="1">
          <mxGeometry relative="1" as="geometry" />
        </mxCell>
        <mxCell id="0IdrTEg0beJuwS93n00U-22" style="edgeStyle=orthogonalEdgeStyle;rounded=0;orthogonalLoop=1;jettySize=auto;html=1;" parent="TucjEpPuX23Nhl8czytz-85" source="0IdrTEg0beJuwS93n00U-20" target="TucjEpPuX23Nhl8czytz-25" edge="1">
          <mxGeometry relative="1" as="geometry" />
        </mxCell>
        <mxCell id="0IdrTEg0beJuwS93n00U-20" value="" style="points=[[0.25,0.25,0],[0.5,0,0],[0.75,0.25,0],[1,0.5,0],[0.75,0.75,0],[0.5,1,0],[0.25,0.75,0],[0,0.5,0]];shape=mxgraph.bpmn.gateway2;html=1;verticalLabelPosition=bottom;labelBackgroundColor=#ffffff;verticalAlign=top;align=center;perimeter=rhombusPerimeter;outlineConnect=0;outline=none;symbol=none;gwType=exclusive;" parent="TucjEpPuX23Nhl8czytz-85" vertex="1">
          <mxGeometry x="450" y="275" width="50" height="50" as="geometry" />
        </mxCell>
        <mxCell id="0IdrTEg0beJuwS93n00U-24" value="" style="edgeStyle=orthogonalEdgeStyle;rounded=0;orthogonalLoop=1;jettySize=auto;html=1;entryX=0.5;entryY=1;entryDx=0;entryDy=0;exitX=0.5;exitY=0;exitDx=0;exitDy=0;entryPerimeter=0;" parent="TucjEpPuX23Nhl8czytz-85" source="TucjEpPuX23Nhl8czytz-27" target="0IdrTEg0beJuwS93n00U-23" edge="1">
          <mxGeometry relative="1" as="geometry">
            <mxPoint x="930" y="1060" as="sourcePoint" />
            <mxPoint x="1020" y="1015" as="targetPoint" />
          </mxGeometry>
        </mxCell>
        <mxCell id="0IdrTEg0beJuwS93n00U-25" value="" style="edgeStyle=orthogonalEdgeStyle;rounded=0;orthogonalLoop=1;jettySize=auto;html=1;entryX=0;entryY=0.5;entryDx=0;entryDy=0;" parent="TucjEpPuX23Nhl8czytz-85" source="TucjEpPuX23Nhl8czytz-25" target="0IdrTEg0beJuwS93n00U-23" edge="1">
          <mxGeometry relative="1" as="geometry">
            <mxPoint x="845" y="995" as="sourcePoint" />
            <mxPoint x="1020" y="995" as="targetPoint" />
          </mxGeometry>
        </mxCell>
        <mxCell id="0IdrTEg0beJuwS93n00U-23" value="" style="points=[[0.25,0.25,0],[0.5,0,0],[0.75,0.25,0],[1,0.5,0],[0.75,0.75,0],[0.5,1,0],[0.25,0.75,0],[0,0.5,0]];shape=mxgraph.bpmn.gateway2;html=1;verticalLabelPosition=bottom;labelBackgroundColor=#ffffff;verticalAlign=top;align=center;perimeter=rhombusPerimeter;outlineConnect=0;outline=none;symbol=none;gwType=parallel;" parent="TucjEpPuX23Nhl8czytz-85" vertex="1">
          <mxGeometry x="595" y="170" width="50" height="50" as="geometry" />
        </mxCell>
        <mxCell id="0IdrTEg0beJuwS93n00U-30" style="edgeStyle=orthogonalEdgeStyle;rounded=0;orthogonalLoop=1;jettySize=auto;html=1;" parent="TucjEpPuX23Nhl8czytz-85" source="0IdrTEg0beJuwS93n00U-28" target="TucjEpPuX23Nhl8czytz-66" edge="1">
          <mxGeometry relative="1" as="geometry" />
        </mxCell>
        <mxCell id="0IdrTEg0beJuwS93n00U-28" value="" style="points=[[0.25,0.25,0],[0.5,0,0],[0.75,0.25,0],[1,0.5,0],[0.75,0.75,0],[0.5,1,0],[0.25,0.75,0],[0,0.5,0]];shape=mxgraph.bpmn.gateway2;html=1;verticalLabelPosition=bottom;labelBackgroundColor=#ffffff;verticalAlign=top;align=center;perimeter=rhombusPerimeter;outlineConnect=0;outline=none;symbol=none;gwType=parallel;" parent="TucjEpPuX23Nhl8czytz-85" vertex="1">
          <mxGeometry x="890" y="55" width="50" height="50" as="geometry" />
        </mxCell>
        <mxCell id="0IdrTEg0beJuwS93n00U-31" style="edgeStyle=orthogonalEdgeStyle;rounded=0;orthogonalLoop=1;jettySize=auto;html=1;entryX=1;entryY=0.5;entryDx=0;entryDy=0;entryPerimeter=0;" parent="TucjEpPuX23Nhl8czytz-85" source="0IdrTEg0beJuwS93n00U-32" target="0IdrTEg0beJuwS93n00U-28" edge="1">
          <mxGeometry relative="1" as="geometry">
            <mxPoint x="1505" y="170.00000000000023" as="sourcePoint" />
            <Array as="points">
              <mxPoint x="1505" y="80" />
            </Array>
          </mxGeometry>
        </mxCell>
        <mxCell id="0IdrTEg0beJuwS93n00U-33" value="" style="edgeStyle=orthogonalEdgeStyle;rounded=0;orthogonalLoop=1;jettySize=auto;html=1;" parent="TucjEpPuX23Nhl8czytz-85" source="0IdrTEg0beJuwS93n00U-32" target="TucjEpPuX23Nhl8czytz-34" edge="1">
          <mxGeometry relative="1" as="geometry" />
        </mxCell>
        <mxCell id="0IdrTEg0beJuwS93n00U-32" value="" style="points=[[0.25,0.25,0],[0.5,0,0],[0.75,0.25,0],[1,0.5,0],[0.75,0.75,0],[0.5,1,0],[0.25,0.75,0],[0,0.5,0]];shape=mxgraph.bpmn.gateway2;html=1;verticalLabelPosition=bottom;labelBackgroundColor=#ffffff;verticalAlign=top;align=center;perimeter=rhombusPerimeter;outlineConnect=0;outline=none;symbol=none;gwType=exclusive;" parent="TucjEpPuX23Nhl8czytz-85" vertex="1">
          <mxGeometry x="1480" y="170" width="50" height="50" as="geometry" />
        </mxCell>
        <mxCell id="CtIp2IQ8Axbut6lDHe1j-6" value="Получить Новостные Стать" style="shape=ext;rounded=1;html=1;whiteSpace=wrap;" parent="TucjEpPuX23Nhl8czytz-85" vertex="1">
          <mxGeometry x="855" y="245" width="120" height="80" as="geometry" />
        </mxCell>
        <mxCell id="CtIp2IQ8Axbut6lDHe1j-9" style="edgeStyle=orthogonalEdgeStyle;rounded=0;orthogonalLoop=1;jettySize=auto;html=1;" parent="TucjEpPuX23Nhl8czytz-85" source="CtIp2IQ8Axbut6lDHe1j-7" target="TucjEpPuX23Nhl8czytz-65" edge="1">
          <mxGeometry relative="1" as="geometry" />
        </mxCell>
        <mxCell id="CtIp2IQ8Axbut6lDHe1j-10" style="edgeStyle=orthogonalEdgeStyle;rounded=0;orthogonalLoop=1;jettySize=auto;html=1;" parent="TucjEpPuX23Nhl8czytz-85" source="CtIp2IQ8Axbut6lDHe1j-7" target="0IdrTEg0beJuwS93n00U-28" edge="1">
          <mxGeometry relative="1" as="geometry" />
        </mxCell>
        <mxCell id="CtIp2IQ8Axbut6lDHe1j-7" value="" style="points=[[0.25,0.25,0],[0.5,0,0],[0.75,0.25,0],[1,0.5,0],[0.75,0.75,0],[0.5,1,0],[0.25,0.75,0],[0,0.5,0]];shape=mxgraph.bpmn.gateway2;html=1;verticalLabelPosition=bottom;labelBackgroundColor=#ffffff;verticalAlign=top;align=center;perimeter=rhombusPerimeter;outlineConnect=0;outline=none;symbol=none;gwType=exclusive;" parent="TucjEpPuX23Nhl8czytz-85" vertex="1">
          <mxGeometry x="890" y="170" width="50" height="50" as="geometry" />
        </mxCell>
        <mxCell id="CtIp2IQ8Axbut6lDHe1j-8" style="edgeStyle=orthogonalEdgeStyle;rounded=0;orthogonalLoop=1;jettySize=auto;html=1;entryX=0.5;entryY=1;entryDx=0;entryDy=0;entryPerimeter=0;" parent="TucjEpPuX23Nhl8czytz-85" source="CtIp2IQ8Axbut6lDHe1j-6" target="CtIp2IQ8Axbut6lDHe1j-7" edge="1">
          <mxGeometry relative="1" as="geometry" />
        </mxCell>
        <mxCell id="TucjEpPuX23Nhl8czytz-84" value="" style="swimlane;html=1;startSize=20;fontStyle=0;collapsible=0;horizontal=0;swimlaneLine=1;swimlaneFillColor=#ffffff;strokeWidth=2;whiteSpace=wrap;" parent="TucjEpPuX23Nhl8czytz-80" vertex="1">
          <mxGeometry y="125" width="1640" height="425" as="geometry" />
        </mxCell>
        <mxCell id="TucjEpPuX23Nhl8czytz-1" value="Получить Последние Стать" style="shape=ext;rounded=1;html=1;whiteSpace=wrap;" parent="TucjEpPuX23Nhl8czytz-84" vertex="1">
          <mxGeometry x="140" y="145" width="120" height="80" as="geometry" />
        </mxCell>
        <mxCell id="TucjEpPuX23Nhl8czytz-4" style="edgeStyle=orthogonalEdgeStyle;rounded=0;orthogonalLoop=1;jettySize=auto;html=1;" parent="TucjEpPuX23Nhl8czytz-84" source="TucjEpPuX23Nhl8czytz-1" target="0IdrTEg0beJuwS93n00U-2" edge="1">
          <mxGeometry relative="1" as="geometry">
            <mxPoint x="310" y="185" as="targetPoint" />
          </mxGeometry>
        </mxCell>
        <mxCell id="TucjEpPuX23Nhl8czytz-6" value="Отправить Последние Найденные Статьи" style="shape=ext;rounded=1;html=1;whiteSpace=wrap;" parent="TucjEpPuX23Nhl8czytz-84" vertex="1">
          <mxGeometry x="380" y="80" width="120" height="80" as="geometry" />
        </mxCell>
        <mxCell id="TucjEpPuX23Nhl8czytz-8" value="" style="points=[[0.145,0.145,0],[0.5,0,0],[0.855,0.145,0],[1,0.5,0],[0.855,0.855,0],[0.5,1,0],[0.145,0.855,0],[0,0.5,0]];shape=mxgraph.bpmn.event;html=1;verticalLabelPosition=bottom;labelBackgroundColor=#ffffff;verticalAlign=top;align=center;perimeter=ellipsePerimeter;outlineConnect=0;aspect=fixed;outline=end;symbol=terminate2;" parent="TucjEpPuX23Nhl8czytz-84" vertex="1">
          <mxGeometry x="530" y="240" width="50" height="50" as="geometry" />
        </mxCell>
        <mxCell id="TucjEpPuX23Nhl8czytz-10" value="Отклонить Запрос" style="shape=ext;rounded=1;html=1;whiteSpace=wrap;" parent="TucjEpPuX23Nhl8czytz-84" vertex="1">
          <mxGeometry x="380" y="225" width="120" height="80" as="geometry" />
        </mxCell>
        <mxCell id="TucjEpPuX23Nhl8czytz-12" style="edgeStyle=orthogonalEdgeStyle;rounded=0;orthogonalLoop=1;jettySize=auto;html=1;entryX=0;entryY=0.5;entryDx=0;entryDy=0;entryPerimeter=0;" parent="TucjEpPuX23Nhl8czytz-84" source="TucjEpPuX23Nhl8czytz-10" target="TucjEpPuX23Nhl8czytz-8" edge="1">
          <mxGeometry relative="1" as="geometry" />
        </mxCell>
        <mxCell id="TucjEpPuX23Nhl8czytz-40" value="Получить Параметры Для Поиска" style="shape=ext;rounded=1;html=1;whiteSpace=wrap;" parent="TucjEpPuX23Nhl8czytz-84" vertex="1">
          <mxGeometry x="710" y="145" width="120" height="80" as="geometry" />
        </mxCell>
        <mxCell id="TucjEpPuX23Nhl8czytz-49" value="Поиск Подходящих Статей" style="shape=ext;rounded=1;html=1;whiteSpace=wrap;" parent="TucjEpPuX23Nhl8czytz-84" vertex="1">
          <mxGeometry x="900" y="145" width="120" height="80" as="geometry" />
        </mxCell>
        <mxCell id="TucjEpPuX23Nhl8czytz-50" style="edgeStyle=orthogonalEdgeStyle;rounded=0;orthogonalLoop=1;jettySize=auto;html=1;entryX=0;entryY=0.5;entryDx=0;entryDy=0;" parent="TucjEpPuX23Nhl8czytz-84" source="TucjEpPuX23Nhl8czytz-40" target="TucjEpPuX23Nhl8czytz-49" edge="1">
          <mxGeometry relative="1" as="geometry" />
        </mxCell>
        <mxCell id="TucjEpPuX23Nhl8czytz-52" style="edgeStyle=orthogonalEdgeStyle;rounded=0;orthogonalLoop=1;jettySize=auto;html=1;" parent="TucjEpPuX23Nhl8czytz-84" source="TucjEpPuX23Nhl8czytz-49" target="0IdrTEg0beJuwS93n00U-8" edge="1">
          <mxGeometry relative="1" as="geometry">
            <mxPoint x="1060" y="185" as="targetPoint" />
          </mxGeometry>
        </mxCell>
        <mxCell id="TucjEpPuX23Nhl8czytz-53" value="Отклонить Запрос" style="shape=ext;rounded=1;html=1;whiteSpace=wrap;" parent="TucjEpPuX23Nhl8czytz-84" vertex="1">
          <mxGeometry x="1025" y="265" width="120" height="80" as="geometry" />
        </mxCell>
        <mxCell id="TucjEpPuX23Nhl8czytz-56" style="edgeStyle=orthogonalEdgeStyle;rounded=0;orthogonalLoop=1;jettySize=auto;html=1;entryX=0.5;entryY=0;entryDx=0;entryDy=0;" parent="TucjEpPuX23Nhl8czytz-84" source="0IdrTEg0beJuwS93n00U-8" target="TucjEpPuX23Nhl8czytz-53" edge="1">
          <mxGeometry relative="1" as="geometry">
            <mxPoint x="1085" y="210" as="sourcePoint" />
          </mxGeometry>
        </mxCell>
        <mxCell id="TucjEpPuX23Nhl8czytz-54" value="" style="points=[[0.145,0.145,0],[0.5,0,0],[0.855,0.145,0],[1,0.5,0],[0.855,0.855,0],[0.5,1,0],[0.145,0.855,0],[0,0.5,0]];shape=mxgraph.bpmn.event;html=1;verticalLabelPosition=bottom;labelBackgroundColor=#ffffff;verticalAlign=top;align=center;perimeter=ellipsePerimeter;outlineConnect=0;aspect=fixed;outline=end;symbol=terminate2;" parent="TucjEpPuX23Nhl8czytz-84" vertex="1">
          <mxGeometry x="1190" y="280" width="50" height="50" as="geometry" />
        </mxCell>
        <mxCell id="TucjEpPuX23Nhl8czytz-55" style="edgeStyle=orthogonalEdgeStyle;rounded=0;orthogonalLoop=1;jettySize=auto;html=1;entryX=0;entryY=0.5;entryDx=0;entryDy=0;entryPerimeter=0;" parent="TucjEpPuX23Nhl8czytz-84" source="TucjEpPuX23Nhl8czytz-53" target="TucjEpPuX23Nhl8czytz-54" edge="1">
          <mxGeometry relative="1" as="geometry" />
        </mxCell>
        <mxCell id="TucjEpPuX23Nhl8czytz-57" value="Отправить Найденные Статьи" style="shape=ext;rounded=1;html=1;whiteSpace=wrap;" parent="TucjEpPuX23Nhl8czytz-84" vertex="1">
          <mxGeometry x="1155" y="145" width="120" height="80" as="geometry" />
        </mxCell>
        <mxCell id="TucjEpPuX23Nhl8czytz-58" style="edgeStyle=orthogonalEdgeStyle;rounded=0;orthogonalLoop=1;jettySize=auto;html=1;" parent="TucjEpPuX23Nhl8czytz-84" source="0IdrTEg0beJuwS93n00U-8" target="TucjEpPuX23Nhl8czytz-57" edge="1">
          <mxGeometry relative="1" as="geometry">
            <mxPoint x="1110" y="185" as="sourcePoint" />
          </mxGeometry>
        </mxCell>
        <mxCell id="TucjEpPuX23Nhl8czytz-87" value="&lt;font style=&quot;font-size: 18px;&quot;&gt;Сервер&lt;br&gt;&lt;/font&gt;" style="text;html=1;align=center;verticalAlign=middle;resizable=0;points=[];autosize=1;strokeColor=none;fillColor=none;rotation=-90;" parent="TucjEpPuX23Nhl8czytz-84" vertex="1">
          <mxGeometry x="-35" y="170" width="90" height="40" as="geometry" />
        </mxCell>
        <mxCell id="TucjEpPuX23Nhl8czytz-115" style="edgeStyle=orthogonalEdgeStyle;rounded=0;orthogonalLoop=1;jettySize=auto;html=1;entryX=0;entryY=0.5;entryDx=0;entryDy=0;" parent="TucjEpPuX23Nhl8czytz-84" source="TucjEpPuX23Nhl8czytz-88" target="TucjEpPuX23Nhl8czytz-114" edge="1">
          <mxGeometry relative="1" as="geometry" />
        </mxCell>
        <mxCell id="TucjEpPuX23Nhl8czytz-88" value="Получить Данные По Выбранной Статье" style="shape=ext;rounded=1;html=1;whiteSpace=wrap;" parent="TucjEpPuX23Nhl8czytz-84" vertex="1">
          <mxGeometry x="1340" y="145" width="120" height="80" as="geometry" />
        </mxCell>
        <mxCell id="TucjEpPuX23Nhl8czytz-114" value="Отправить Данные По Статье" style="shape=ext;rounded=1;html=1;whiteSpace=wrap;" parent="TucjEpPuX23Nhl8czytz-84" vertex="1">
          <mxGeometry x="1490" y="145" width="120" height="80" as="geometry" />
        </mxCell>
        <mxCell id="0IdrTEg0beJuwS93n00U-4" style="edgeStyle=orthogonalEdgeStyle;rounded=0;orthogonalLoop=1;jettySize=auto;html=1;entryX=0;entryY=0.5;entryDx=0;entryDy=0;exitX=0.5;exitY=0;exitDx=0;exitDy=0;exitPerimeter=0;" parent="TucjEpPuX23Nhl8czytz-84" source="0IdrTEg0beJuwS93n00U-2" target="TucjEpPuX23Nhl8czytz-6" edge="1">
          <mxGeometry relative="1" as="geometry" />
        </mxCell>
        <mxCell id="0IdrTEg0beJuwS93n00U-5" style="edgeStyle=orthogonalEdgeStyle;rounded=0;orthogonalLoop=1;jettySize=auto;html=1;entryX=0;entryY=0.5;entryDx=0;entryDy=0;exitX=0.5;exitY=1;exitDx=0;exitDy=0;exitPerimeter=0;" parent="TucjEpPuX23Nhl8czytz-84" source="0IdrTEg0beJuwS93n00U-2" target="TucjEpPuX23Nhl8czytz-10" edge="1">
          <mxGeometry relative="1" as="geometry" />
        </mxCell>
        <mxCell id="0IdrTEg0beJuwS93n00U-2" value="" style="points=[[0.25,0.25,0],[0.5,0,0],[0.75,0.25,0],[1,0.5,0],[0.75,0.75,0],[0.5,1,0],[0.25,0.75,0],[0,0.5,0]];shape=mxgraph.bpmn.gateway2;html=1;verticalLabelPosition=bottom;labelBackgroundColor=#ffffff;verticalAlign=top;align=center;perimeter=rhombusPerimeter;outlineConnect=0;outline=none;symbol=none;gwType=exclusive;" parent="TucjEpPuX23Nhl8czytz-84" vertex="1">
          <mxGeometry x="300" y="160" width="50" height="50" as="geometry" />
        </mxCell>
        <mxCell id="0IdrTEg0beJuwS93n00U-6" value="Articles" style="shape=datastore;html=1;labelPosition=center;verticalLabelPosition=bottom;align=center;verticalAlign=top;" parent="TucjEpPuX23Nhl8czytz-84" vertex="1">
          <mxGeometry x="40" y="25" width="100" height="100" as="geometry" />
        </mxCell>
        <mxCell id="0IdrTEg0beJuwS93n00U-7" value="" style="edgeStyle=elbowEdgeStyle;fontSize=12;html=1;endFill=0;startFill=0;endSize=6;startSize=6;dashed=1;dashPattern=1 4;endArrow=openThin;startArrow=none;rounded=0;exitX=0.5;exitY=1;exitDx=0;exitDy=0;entryX=0;entryY=0.5;entryDx=0;entryDy=0;" parent="TucjEpPuX23Nhl8czytz-84" source="0IdrTEg0beJuwS93n00U-6" target="TucjEpPuX23Nhl8czytz-1" edge="1">
          <mxGeometry width="160" relative="1" as="geometry">
            <mxPoint x="80" y="120" as="sourcePoint" />
            <mxPoint x="240" y="120" as="targetPoint" />
            <Array as="points">
              <mxPoint x="90" y="160" />
            </Array>
          </mxGeometry>
        </mxCell>
        <mxCell id="0IdrTEg0beJuwS93n00U-8" value="" style="points=[[0.25,0.25,0],[0.5,0,0],[0.75,0.25,0],[1,0.5,0],[0.75,0.75,0],[0.5,1,0],[0.25,0.75,0],[0,0.5,0]];shape=mxgraph.bpmn.gateway2;html=1;verticalLabelPosition=bottom;labelBackgroundColor=#ffffff;verticalAlign=top;align=center;perimeter=rhombusPerimeter;outlineConnect=0;outline=none;symbol=none;gwType=exclusive;" parent="TucjEpPuX23Nhl8czytz-84" vertex="1">
          <mxGeometry x="1060" y="160" width="50" height="50" as="geometry" />
        </mxCell>
        <mxCell id="TucjEpPuX23Nhl8czytz-16" style="edgeStyle=orthogonalEdgeStyle;rounded=0;orthogonalLoop=1;jettySize=auto;html=1;entryX=0.5;entryY=0;entryDx=0;entryDy=0;endArrow=classic;endFill=1;" parent="TucjEpPuX23Nhl8czytz-80" source="7a84cebc1def654-2" target="TucjEpPuX23Nhl8czytz-1" edge="1">
          <mxGeometry relative="1" as="geometry" />
        </mxCell>
        <mxCell id="TucjEpPuX23Nhl8czytz-47" style="edgeStyle=orthogonalEdgeStyle;rounded=0;orthogonalLoop=1;jettySize=auto;html=1;endArrow=classic;endFill=1;" parent="TucjEpPuX23Nhl8czytz-80" source="TucjEpPuX23Nhl8czytz-19" target="TucjEpPuX23Nhl8czytz-40" edge="1">
          <mxGeometry relative="1" as="geometry" />
        </mxCell>
        <mxCell id="TucjEpPuX23Nhl8czytz-90" style="edgeStyle=orthogonalEdgeStyle;rounded=0;orthogonalLoop=1;jettySize=auto;html=1;entryX=0.5;entryY=0;entryDx=0;entryDy=0;endArrow=classic;endFill=1;" parent="TucjEpPuX23Nhl8czytz-80" source="TucjEpPuX23Nhl8czytz-65" target="TucjEpPuX23Nhl8czytz-88" edge="1">
          <mxGeometry relative="1" as="geometry">
            <Array as="points">
              <mxPoint x="1030" y="50" />
              <mxPoint x="1400" y="50" />
            </Array>
          </mxGeometry>
        </mxCell>
        <mxCell id="0IdrTEg0beJuwS93n00U-37" value="" style="edgeStyle=orthogonalEdgeStyle;fontSize=12;html=1;endFill=0;startFill=0;endSize=6;startSize=6;endArrow=openThin;startArrow=none;rounded=0;entryX=0.5;entryY=1;entryDx=0;entryDy=0;exitX=1;exitY=0.5;exitDx=0;exitDy=0;" parent="TucjEpPuX23Nhl8czytz-80" source="TucjEpPuX23Nhl8czytz-57" target="CtIp2IQ8Axbut6lDHe1j-6" edge="1">
          <mxGeometry width="160" relative="1" as="geometry">
            <mxPoint x="1230" y="305" as="sourcePoint" />
            <mxPoint x="1295" y="250" as="targetPoint" />
          </mxGeometry>
        </mxCell>
        <mxCell id="i5ZJGILioLUoDs4VX8Xh-1" style="edgeStyle=orthogonalEdgeStyle;rounded=0;orthogonalLoop=1;jettySize=auto;html=1;entryX=0.5;entryY=1;entryDx=0;entryDy=0;" edge="1" parent="TucjEpPuX23Nhl8czytz-80" source="TucjEpPuX23Nhl8czytz-114" target="TucjEpPuX23Nhl8czytz-29">
          <mxGeometry relative="1" as="geometry">
            <Array as="points">
              <mxPoint x="1550" />
              <mxPoint x="1200" />
            </Array>
          </mxGeometry>
        </mxCell>
        <mxCell id="0IdrTEg0beJuwS93n00U-12" value="" style="edgeStyle=orthogonalEdgeStyle;fontSize=12;html=1;endFill=0;startFill=0;endSize=6;startSize=6;endArrow=openThin;startArrow=none;rounded=0;exitX=1;exitY=0.5;exitDx=0;exitDy=0;entryX=0.5;entryY=1;entryDx=0;entryDy=0;" parent="TucjEpPuX23Nhl8czytz-80" source="TucjEpPuX23Nhl8czytz-6" target="0IdrTEg0beJuwS93n00U-1" edge="1">
          <mxGeometry width="160" relative="1" as="geometry">
            <mxPoint x="520" y="265" as="sourcePoint" />
            <mxPoint x="540" y="195" as="targetPoint" />
            <Array as="points">
              <mxPoint x="540" y="245" />
              <mxPoint x="540" y="133" />
              <mxPoint x="355" y="133" />
            </Array>
          </mxGeometry>
        </mxCell>
      </root>
    </mxGraphModel>
  </diagram>
</mxfile>
